Coordinates
version=1
nRows=10
nColumns=40
inDegrees=yes

Units are S.I. units (second, meters, Newtons, ...)
Angles are in degrees.

endheader
time	pelvis_tilt	pelvis_list	pelvis_rotation	pelvis_tx	pelvis_ty	pelvis_tz	hip_flexion_r	hip_adduction_r	hip_rotation_r	knee_angle_r	knee_angle_r_beta	ankle_angle_r	subtalar_angle_r	mtp_angle_r	hip_flexion_l	hip_adduction_l	hip_rotation_l	knee_angle_l	knee_angle_l_beta	ankle_angle_l	subtalar_angle_l	mtp_angle_l	lumbar_extension	lumbar_bending	lumbar_rotation	arm_flex_r	arm_add_r	arm_rot_r	elbow_flex_r	pro_sup_r	wrist_flex_r	wrist_dev_r	arm_flex_l	arm_add_l	arm_rot_l	elbow_flex_l	pro_sup_l	wrist_flex_l	wrist_dev_l
     24.20342857	     -1.53484058	     -6.85379924	     -4.32674530	      0.94684470	      0.91814189	      0.56845899	     10.58677873	      7.44790427	    -10.52675919	     25.78577286	     25.78577286	     16.89991230	    -11.45685844	      0.11089826	     25.24745991	    -15.54795928	      1.47413105	     66.80993069	     66.80993069	     14.52349168	    -19.60006544	     23.51128502	    -11.35687357	      7.95069251	     -0.64839179	     14.53146117	    -17.26019444	    -13.63375579	     78.63463219	     45.06448597	      0.00000000	      0.00000000	      7.61081619	     -7.35000083	     -0.22899801	     27.73072426	     46.08816792	      0.00000000	      0.00000000
     24.22185714	     -1.64205461	     -6.73470500	     -3.78686550	      0.94493891	      0.91819047	      0.56867467	     10.27874304	      7.37151222	    -10.76577227	     25.41601349	     25.41601349	     17.03798502	    -11.61651586	      0.15928315	     26.65262077	    -15.20099031	      1.56376716	     65.17020339	     65.17020339	     15.44275794	    -19.60661655	     23.39267702	    -11.43921254	      7.72234227	     -0.61120802	     16.61647851	    -16.96000142	    -13.75270339	     80.36319336	     45.02531736	      0.00000000	      0.00000000	      5.67581732	     -7.15070983	      0.22370776	     26.45240455	     45.97991750	      0.00000000	      0.00000000
     24.24028571	     -1.89290308	     -6.54779150	     -3.27039728	      0.94303567	      0.91843809	      0.56850781	     10.09789843	      7.19747509	    -11.05481333	     24.98842900	     24.98842900	     17.08132234	    -11.71701637	      0.23954358	     27.99342225	    -14.72751140	      1.56707720	     62.89884654	     62.89884654	     16.18341768	    -19.59690629	     23.26287879	    -11.29064954	      7.40452631	      0.09554656	     18.33450647	    -17.44788180	    -13.94763694	     81.28738848	     45.01058282	      0.00000000	      0.00000000	      3.99635277	     -6.82319122	      0.35987113	     25.72162716	     45.92667608	      0.00000000	      0.00000000
     24.25871429	     -1.99599583	     -6.34816477	     -2.65863901	      0.94134883	      0.91926642	      0.56801916	      9.51984037	      7.00635777	    -11.44727241	     24.13440576	     24.13440576	     17.06536555	    -11.57594328	      0.30415397	     28.93777351	    -14.09905976	      1.68890846	     60.03248098	     60.03248098	     16.67352465	    -19.58356103	     23.11560295	    -11.37190074	      7.15561677	     -0.33040875	     20.62792321	    -16.78542919	    -13.61615539	     83.71687450	     44.93485463	      0.00000000	      0.00000000	      2.01455193	     -6.88119671	      0.87017592	     24.35109895	     45.80147254	      0.00000000	      0.00000000
     24.27714286	     -2.38590880	     -6.06045274	     -2.10350384	      0.93954585	      0.91992511	      0.56716433	      9.30229456	      6.69626360	    -11.84915175	     23.35589612	     23.35589612	     16.97348278	    -11.47552628	      0.40276929	     29.97505089	    -13.31949785	      1.80319446	     56.70333011	     56.70333011	     16.90491670	    -19.55147666	     22.98214777	    -11.09103702	      6.76746827	      0.14610737	     22.44908432	    -17.20235847	    -13.64464748	     84.96065772	     44.90633120	      0.00000000	      0.00000000	      0.36852946	     -6.76992056	      1.07000469	     23.68572014	     45.73277384	      0.00000000	      0.00000000
     24.29557143	     -2.57017574	     -5.80733611	     -1.47838172	      0.93813879	      0.92109037	      0.56596219	      8.62251249	      6.38565907	    -12.47727868	     22.17525835	     22.17525835	     16.48808802	    -11.00908425	     -0.64024004	     30.44823598	    -12.53963669	      1.91331339	     52.77963080	     52.77963080	     16.14442015	    -19.48116256	     21.01930972	    -11.03192803	      6.53056128	      0.25358786	     24.17835048	    -17.38559353	    -12.91374540	     87.53361786	     44.98502687	      0.00000000	      0.00000000	     -2.04577881	     -7.80532607	      8.28307488	     24.67427781	     44.45953484	      0.00000000	      0.00000000
     24.31400000	     -2.87772988	     -5.48957447	     -0.90305630	      0.93672254	      0.92222430	      0.56446304	      8.09735109	      6.00847621	    -13.03982383	     21.06839171	     21.06839171	     16.35918124	    -10.49463822	     -0.50158431	     30.86406820	    -11.57989528	      2.21275338	     48.63960675	     48.63960675	     15.62923826	    -19.36633999	     20.68681646	    -10.81229857	      6.16528662	      0.49163542	     26.01602423	    -17.47699909	    -12.95033169	     88.99572785	     44.95180818	      0.00000000	      0.00000000	     -3.66285541	     -7.81635780	      8.30789387	     24.28901931	     44.44108541	      0.00000000	      0.00000000
     24.33242857	     -3.25347673	     -5.21796545	     -0.30987972	      0.93544219	      0.92312020	      0.56262032	      7.60617020	      5.60048112	    -13.95671330	     19.93048830	     19.93048830	     16.17378846	     -9.42950076	     -0.92325723	     31.06091624	    -10.71888868	      2.47020963	     44.09738614	     44.09738614	     13.71347221	    -19.18220105	     17.24328436	    -10.54508218	      5.89457730	      0.61760007	     27.79402813	    -17.77399996	    -12.53525799	     90.87221941	     44.90801203	      0.00000000	      0.00000000	     -5.57924803	     -7.95220646	      8.20681929	     24.99917375	     44.47274898	      0.00000000	      0.00000000
     24.35085714	     -3.56400988	     -4.90137290	      0.22622059	      0.93433412	      0.92409946	      0.56062615	      7.02706926	      5.24599248	    -14.39453592	     18.76213732	     18.76213732	     16.00367695	     -9.08067488	     -0.79905103	     31.05823373	     -9.75349890	      2.95043682	     39.66282557	     39.66282557	     12.70115834	    -18.79758330	     17.18305348	    -10.29502818	      5.53613274	      0.89974740	     29.53477436	    -17.96014384	    -12.61010872	     91.99043605	     44.88661896	      0.00000000	      0.00000000	     -6.90568594	     -8.04087118	      8.19358946	     24.74648818	     44.46293733	      0.00000000	      0.00000000
     24.36928571	     -3.80014785	     -4.66342140	      0.74340872	      0.93355485	      0.92492600	      0.55842542	      6.27048419	      4.94851339	    -15.05872572	     17.48469276	     17.48469276	     15.84337825	     -8.24701720	     -0.87986418	     30.80724135	     -8.98659664	      3.35234889	     35.27795439	     35.27795439	     11.40821664	    -17.91618703	     16.22285807	    -10.11178607	      5.26946183	      1.05351493	     31.26274260	    -17.99161822	    -12.49922058	     93.37402201	     44.85219354	      0.00000000	      0.00000000	     -8.29318719	     -8.14229517	      8.11487182	     24.77862237	     44.46414713	      0.00000000	      0.00000000
